<?xml version="1.0" encoding="UTF-8"?>
<svg version="1.1" viewBox="0 0 1364 1416" width="1280" height="1280" xmlns="http://www.w3.org/2000/svg">
<path transform="translate(0)" d="m0 0h1364v1416h-1364z" fill="#FDFDFD"/>
<path transform="translate(633,145)" d="m0 0h53l38 3 34 5 36 8 35 10 25 9 28 12 21 10 20 11 20 12 24 16 17 13 4 5-1 29-4 66-4 41-3 19-1 3-4-2-1-2v11l2 18 3 14 3 5h2l4-13 3-20 4-37 3-34 4-64 1-3 1-21 4 1 7 6v2l4 2 16 15 19 19 7 8 12 14 13 16 12 17 9 13 12 19 12 21 15 30 11 26 9 25 7 21 8 32 5 25 4 28 3 34v61l-3 32-4 28-7 35-8 29-10 30-10 24-9 20-13 26-14 24-9 14-9 13-18 24-11 13-9 11-13 13-1 2h-2l-2 4-30 28-11 9-16 13-17 12-8 6-3 3-3 37-3 49-4 53-5 46-3 16-3 6-3 1-4-4-4-20-1-8v-15l6-3 3-20 3-27 2-31 2-20 2-52-22 13-16 8-19 9-10 5-25 10-28 10-5 1v-103l10-4 24-8 20-9 14-8 9-7 13-13 9-12 3-6-14 10-14 9-19 10-23 10-17 6-22 7-33 8-34 6-5-1v-11l6-105 1-15 4-3 25-7 21-8 17-8 20-12 32-22 14-9 6-4h2v-2l-5-2-15-8-15-5-14-3-7-1h-15l-16 3-15 5-25 9-25 6-22 3-12 1h-11l-27-3-23-5-24-8-20-9-14-8-16-11-11-9-13-12-7-8-9-10-11-15-11-19-9-20-7-21-6-28-1-11v-41l4-28 5-20 6-16 12-23 13-21 6-8-2-7-4-3-2 5-16 31-9 23-7 26-4 20-4 30-1 11v44l3 30 4 24 7 28 8 24 7 17 12 22 11 16 11 13 4 5 6 5v2l4 2 8 8 15 11 15 9 14 7 18 7 25 6 21 3 15 1 35 1 1 1-1 26-5 89-1 14-2 5-30 1h-17l-30-1-23-2-29-4h-6l1 5 26 6 30 5 34 3 45 2v11l-5 57-2 32-1 7-13 1h-26l-32-1-26-2-42-6-24-5-27-7-38-13-28-11-4-2-1-8v-78l-1-47-1 1-1 53v73l-1 2-5-1-11-6-19-10-22-13-15-10-17-12-16-13-22-18-1-2v-198h4l12 22 3 4-9-21-5-13-6-16-7-27-5-27-4-34-1-19v-50l2-26 3-28 5-28 5-23 8-28 8-23 11-26 8-16 9-17 11-18 12-16 7-10 4-5 3-1 1 5-2 26-5 61-5 37-2 4h-5l-3-3-2-15-2 7 1 21 3 26 5 25 5 14 4 6 5-1 4-9 5-19 4-26 4-37 4-46 4-57 2-40 2-8 9-10 14-12 19-14 15-10 21-12 26-13 5-3h2l-1-19-4-55 1-12-8 1-8 2v2l-16 5-19 9-38 19-9 5h-3v-28l1-22 1-10v-10l2-5 8-5 23-11 30-12 31-10 38-9 36-6 30-3z" fill="#FCFCFC"/>
<path transform="translate(635,85)" d="m0 0h51l38 3 42 6 28 6 31 8 36 12 28 11 26 12 26 13 19 11 24 15 20 14 21 16 16 13 13 12 8 7 15 14 8 8 7 8 12 13 9 11 11 13 14 19 12 17 12 19 14 24 14 27 11 24 13 33 11 34 8 30 7 36 4 27 3 30 1 21v44l-2 30-4 35-5 29-6 27-10 35-10 29-14 34-11 23-12 22-10 18-14 22-12 17-12 16-13 16-9 11-14 15-9 10-18 18-8 7-10 9-11 9-12 10-19 14-17 12-19 12-17 10h-3l1-32 3-37 4-4 19-14 12-9 11-9 14-12 13-12 7-7 7-6 1-2h2l2-4 13-13 9-11 11-13 8-11 13-18 14-22 14-24 16-32 13-31 7-20 6-18 7-26 8-40 5-41 1-14v-61l-4-43-5-30-7-31-5-18-8-24-9-24-7-17-20-40-12-20-11-17-12-17-9-12-13-16-12-14-14-15-18-18-8-7-3-2v-2l-4-2-4-4-3-1v21l-1 3-4 64-5 53-4 33-4 16-2 3-4-2-3-7-3-16-1-13v-14l2 3 4 4 3-22 4-41 5-87v-8l-5-6-19-14-17-11-13-8-21-12-21-11-32-14-30-11-35-10-36-8-34-5-38-3h-53l-38 3-38 6-31 7-22 6-29 10-31 13-20 10-2 2-1 4v11l-1 9-2 50 16-8 31-16 18-8 10-4 10-2v-2l11-4 5 1v12l5 67-1 7-29 15-17 9-17 11-17 12-10 8-13 11-7 8-2 8-3 58-5 63-4 42-4 32-5 24-5 14-3 3-5-1-5-8-5-16-4-21-3-26-1-21 2-8 2 1 2 15 2 2 5 1 4-25 3-27 4-50 2-30h-3l-2 4-7 9-12 17-10 15-6 11-8 15-12 27-9 24-9 29-6 26-4 21-4 28-2 21-1 17v50l1 19 4 34 5 27 7 27 8 22 4 9 8 19-1 2-10-17-6-11h-2v200l4 2 10 9 10 8 14 11 14 10 15 10 20 12 18 10 22 11v-75l1-55 3 1 1 47v86l9 3 29 11 36 12 14 4 33 7 42 6 26 2 32 1h39l1-25 3-37 4-45h-23l-35-2-28-3-32-6-17-4-2-6 1-1 13 1 31 4 18 1 26 1h17l30-1 1-4 5-83 2-39v-7l-35-1-24-2-17-3-20-5-20-8-16-8-18-12-11-9-7-7-2-1v-2l-4-2v-2l-4-2-9-11-8-10-12-19-8-15-11-28-7-24-6-28-4-30-1-13v-44l3-25 3-22 6-26 6-19 8-20 16-31 2-3 4 2 3 6-2 5-9 13-14 24-9 19-6 20-4 21-2 16v41l2 17 6 25 6 18 12 26 13 20 13 16 8 8 7 8 8 7 13 10 17 11 17 9 23 9 21 6 22 4 20 2h11l29-3 23-5 30-10 10-4 16-4 7-1h15l17 3 16 5 17 8 6 4v2l-13 8-12 8-23 16-21 13-15 8-20 8-18 6-15 4-3 2-4 68-3 52v11l16-2 31-6 31-8 27-9 24-10 19-10 14-8 13-10 6-3-2 5-6 9-12 13-9 9-14 9-21 10-25 9-13 4-1 103 41-15 26-11 32-16 16-9 8-5h2v32l-2 31-1 7-16 8-37 17-5 3-3 35-5 70-5 51-5 26-2 4-4-1-3-5-3-14-1-10v-22l2 3 1 2h2l3-19 3-29 5-80 1-7-34 11-25 7-33 7-43 7-11 1v8l-6 34-5 15-4 6-4-1-4-5-3-7-4-21-3-26-39-1-35-2-34-4-30-5-26-6v171h-18v-159l3-6 3-4 1-5-12-3-25-8-12-4-16-7h-2l-1 63-1 7h-2l-1-2-1-70-15-7-29-14-14-8-11-6-14-8-10-7-11-7-14-10-12-9-14-11-13-11-8-7-15-14-9-8-7-8-12-12-7-8-12-14-13-17-10-13-11-16-13-20-9-15-13-24-8-16-10-21-12-30-13-40-8-31-7-36-4-28-3-36v-64l3-36 5-34 7-34 8-31 12-37 13-32 16-34 12-22 13-22 19-28 10-14 5-9 2-10 4 1 2 3 8-11 11-12 7-8 34-34 8-7 14-12 15-12 18-13 14-10 19-12 15-9 18-10 15-8 33-15 26-10 36-12 36-9 30-6 36-5z" fill="#0292ED"/>
<path transform="translate(633,145)" d="m0 0h53l38 3 34 5 36 8 35 10 25 9 28 12 21 10 20 11 20 12 24 16 17 13 4 5-1 29-3 52h-4l-4-4v-2l-4-2-12-11-11-9-18-14-11-7-10-7-21-13-27-14-22-10-29-11-22-7-28-7-33-6-34-4-18-1h-38l-36 3-30 5-29 6-1 1v24l1 39 1 22 12-4 9-4 14-2 34-7 36-5 28-2 37-1 34 2 33 5 22 5 24 7 20 7 13 6 16 8 14 8 16 12 10 9 9 10 7 11 5 10 3 10v25l-3 9-6 11-10 9-9 4-11 2h-22l-1 116-3 12-6 9-5-2-6-8-2-7-2-26v-104l-10-7-27-13-21-7-29-7-32-4-31-1-8 3-3 2-7-1-5-3h-7l-10 5h-10l5 15 3 16 1 28 4-4h3l-1 10-9 20-9 10-7 7-18 11-8 5 9-3 12-5 21-11 10-9 5-3h1v17l-1 16-2 6-16 8-14 6-22 6h-11v15l-2 41-3 26-3 12-3 1-3-1-4-13-4-40-2-40-1-1-12-1-9-4h-3l-4 10-3 3-4-2-4-8-4-10-6-8-8-9-7-8-3-6-3-2-2 5-16 31-9 23-7 26-4 20-4 30-1 11v44l3 30 4 24 7 28 8 24 7 17 12 22 11 16 11 13 4 5 6 5v2l4 2 8 8 15 11 15 9 14 7 18 7 25 6 21 3 15 1 35 1 1 1-1 26-5 89-1 14-2 5-30 1h-17l-30-1-23-2-29-4h-6l1 5 26 6 30 5 34 3 45 2v11l-5 57-2 32-1 7-13 1h-26l-32-1-26-2-42-6-24-5-27-7-38-13-28-11-4-2-1-8v-78l-1-47-1 1-1 53v73l-1 2-5-1-11-6-19-10-22-13-15-10-17-12-16-13-22-18-1-2v-198h4l12 22 3 4-9-21-5-13-6-16-7-27-5-27-4-34-1-19v-50l2-26 3-28 5-28 5-23 8-28 8-23 11-26 8-16 9-17 11-18 12-16 7-10 4-5 3-1 1 5-2 26-5 61-5 37-2 4h-5l-3-3-2-15-2 7 1 21 3 26 5 25 5 14 4 6 5-1 4-9 5-19 4-26 4-37 4-46 4-57 2-40 2-8 9-10 14-12 19-14 15-10 21-12 26-13 5-3h2l-1-19-4-55 1-12-8 1-8 2v2l-16 5-19 9-38 19-9 5h-3v-28l1-22 1-10v-10l2-5 8-5 23-11 30-12 31-10 38-9 36-6 30-3z" fill="#FDD307"/>
<path transform="translate(391,217)" d="m0 0h2l-1 35-1 30-1 14-8 7-2 5 8 1 1 2v14l-4 4-5 2-2 3 1 9 7 5-1 5-7 6-5 6-4-2-3-1-8 4-3 5 1 5 1 7-11 14-12 17-10 15-14 24-8 15-12 26-8 21-9 30-6 24-5 30-3 28-1 15v42l3 30 4 27 6 28 9 29 5 18 1 7v204l1 6v15h-2l-7-8-9-10-7-8-9-10-8-11-8-10-10-14-10-15-13-21-14-25-11-23-11-26-12-34-9-31-8-39-4-29-3-39v-43l3-37 5-35 6-29 10-36 11-32 8-19 18-40 4-6 2 1v14l-1 15-1 3h2l-1 151v64l1 25 2 7 2 1 1-30 1-23v-21l-1-34v-180l2-9 14-22 13-18 14-18 9-11 12-14 12-13 22-22 8-7 10-9 14-11 20-15 31-21z" fill="#FDFDFD"/>
<path transform="translate(1e3 269)" d="m0 0 4 1 7 6v2l4 2 16 15 19 19 7 8 12 14 13 16 12 17 9 13 12 19 12 21 15 30 11 26 9 25 7 21 8 32 5 25 4 28 3 34v61l-3 32-4 28-7 35-8 29-10 30-10 24-9 20-13 26-14 24-9 14-9 13-18 24-11 13-9 11-13 13-1 2h-2l-2 4-30 28-11 9-16 13-17 12-8 6-3 3-3 37-3 49-4 53-5 46-3 16-3 6-3 1-4-4-4-20-1-8v-15l6-3 3-20 3-27 2-31 2-20 2-52-22 13-16 8-19 9-10 5-25 10-28 10-5 1v-69l12-5 36-16 25-13 25-15 22-15 13-10 10-8 14-12 13-12 15-15 7-8 12-14 14-18 8-11 8-12 13-21 11-20 13-28 11-27 9-28 6-23 6-30 4-30 2-30v-28l-2-35-4-31-7-35-8-29-11-32-13-29-14-27-9-16-2-4-2-1v13l-8 96-4 35-3 15-3 7-5-1-4-9-3-21v-15l3-2h3l3-19 3-28 3-53 1-13v-24l-5-9-10-13-12-14-8-10-5-5v-15l3-46 1-3z" fill="#FDD307"/>
<path transform="translate(197,418)" d="m0 0 2 1v14l-1 15-1 3h2l-1 151v64l1 37 4 35 5 30 8 32 12 36 8 20 11 24 10 19 14 24 14 22 1 3v79l1 6v15h-2l-7-8-9-10-7-8-9-10-8-11-8-10-10-14-10-15-13-21-14-25-11-23-11-26-12-34-9-31-8-39-4-29-3-39v-43l3-37 5-35 6-29 10-36 11-32 8-19 18-40z" fill="#FDD307"/>
<path transform="translate(902,866)" d="m0 0h9l15 2 14 5 8 6 7 8 5 11 4 18v21l-5 17-8 16-7 11-11 12-16 16-16 11-10 7-22 12-20 9-15 6-29 9-33 8-34 6-5-1v-11l6-105 1-15 4-3 25-7 21-8 17-8 20-12 32-22 14-9 8-5 13-4z" fill="#FDD307"/>
<path transform="translate(667,225)" d="m0 0h46l33 3 32 6 32 8 36 12 21 8 25 12 18 11 12 11 10 13 10 17 6 17 3 13 1 9v15l-3 17-5 16-3 8h-1l-1-25-5-15-6-10-10-13-9-9-19-14-14-8-17-9-23-9-18-6-27-7-28-5-15-2-34-2-37 1-28 2-36 5-34 7-17 3-11 5-7 1-1-3-1-19v-39l15-4 18-4 2-11 4-3 8-1 4 1 3 6v2l40-8z" fill="#0292ED"/>
<path transform="translate(391,217)" d="m0 0h2l-1 35-1 30-1 14-8 7-5 5-15 13-11 9-16 15-9 9-7 8-9 10-22 28-15 22-10 16-6 10-8 16-12 25-14 36-6 19-4 15-3 18-3 10-3 4v-180l2-9 14-22 13-18 14-18 9-11 12-14 12-13 22-22 8-7 10-9 14-11 20-15 31-21z" fill="#FDD307"/>
<path transform="translate(1e3 269)" d="m0 0 4 1 7 6v2l4 2 16 15 19 19 7 8 12 14 13 16 12 17 9 13 12 19 12 21 15 30 11 26 9 25 7 21 8 32 5 25 4 28 3 34v61l-3 32-4 28-7 35-8 29-10 30-10 24-9 20-13 26-14 24-9 14-9 13-18 24-11 13-9 11-13 13-1 2h-2l-2 4-30 28-11 9-16 13-17 12-8 6-3 1v-10l2-8 11-9 13-10 11-9 14-12 17-16 13-13 7-8 11-12 22-28 13-19 11-17 13-22 14-27 13-30 10-27 8-26 8-33 6-37 3-31 1-21v-29l-2-35-5-38-8-39-9-31-11-32-11-26-13-27-13-23-12-19-8-12-12-16-13-16-8-10-12-13-7-8-26-26-3-2z" fill="#FDFDFD"/>
<path transform="translate(704,406)" d="m0 0 31 1 32 4 29 7 23 8 25 12 10 7 1 1v29l-1 7h-21l-16-3-6-1 3 6 4 5v177l-2 9-5 9-5 5-5 1-8-7-4-9-1-18v-119l-1-69-7-4-14-6-23-7-14-3-26-3h-16l2-1v-6l-3-5h-3l-1 7 1 3 2 2h-23l-2-5-3-15-3-8v-4l7-1 6-1 4-3 3-1h7l8 4 6-1 5-3z" fill="#0292ED"/>
<path transform="translate(197,418)" d="m0 0 2 1v14l-1 15-3 7-4 8-14 36-8 24-8 29-7 34-4 27-3 41v41l3 36 4 28 6 31 8 30 11 33 12 29 11 24 12 22 10 17 11 17 12 17 13 16 11 14 9 10 6 8 1 6v15h-2l-7-8-9-10-7-8-9-10-8-11-8-10-10-14-10-15-13-21-14-25-11-23-11-26-12-34-9-31-8-39-4-29-3-39v-43l3-37 5-35 6-29 10-36 11-32 8-19 18-40z" fill="#FDFDFD"/>
<path transform="translate(633,145)" d="m0 0h53l38 3 34 5 36 8 35 10 25 9 28 12 21 10 20 11 20 12 24 16 17 13 4 5-1 19-5-5-12-10-19-13-10-7-11-7-20-12-27-14-17-8-28-11-33-11-31-8-29-6-36-5-35-2h-29l-34 2-37 5-29 6h-6l-2-8-18 1-3 1v12l-5 3-32 11-20 8-24 11-12 6h-3v-10l2-5 8-5 23-11 30-12 31-10 38-9 36-6 30-3z" fill="#FDFDFD"/>
<path transform="translate(572,1079)" d="m0 0 33 7 24 4 34 3 45 2v11l-2 24-1 6-9 1h-66l-30-3-26-4-3-2v-27z" fill="#FDFDFD"/>
<path transform="translate(439,1023)" d="m0 0 4 2 37 19 26 11 11 5 1 1 1 54-5-1-25-9-36-16-13-7-1-12z" fill="#FDFDFD"/>
<path transform="translate(638,210)" d="m0 0h38l28 2 36 5 34 7 25 7 26 9 24 10 29 14 18 10 12 8 1 2-5-2-16-9-23-11-33-12-26-8-32-8-28-5-33-3h-46l-31 3-34 7h-6l-3-6v-2l-12 1-3 2-3 11-10 3-18 5h-6v-24l2-2 40-8 28-4z" fill="#FDFDFD"/>
<path transform="translate(308,868)" d="m0 0 3 1 12 22 3 5 2 1 7 14 13 22 4 6 1 4 1 50 1 27-5-2-31-31-9-11-2-1-1-3v-103z" fill="#FCFCFC"/>
<path transform="translate(391,217)" d="m0 0h2v9l-1 9-18 11-22 16-16 13-11 9-12 11-8 7-22 22-9 11-9 10-11 14-10 13-16 24-8 13-12 19-3 10h-1v-27l2-9 14-22 13-18 14-18 9-11 12-14 12-13 22-22 8-7 10-9 14-11 20-15 31-21z" fill="#FDFDFD"/>
<path transform="translate(514,233)" d="m0 0 5 1v26h-13l-2 5-5 6-8 3-9 3-8 7-12 7-7 5-5-1-1-2h-7l-5 3h-2l3 8-1 4-11 9h-2v-8l1-3-7-1-1-2v-14l3-1 7 2 4-2 3-5-1-11-2-1 19-10 15-8 18-8 10-4 10-2v-2z" fill="#FDFDFD"/>
<path transform="translate(646,416)" d="m0 0 3 1 4 15 1 7v14l-5 2-2 16-5 15-4 8-9 11-8 7-9 6h-2v-6l14-13 7-11 5-13 1-11-4 4-7 16-9 13-6 5h-1l-1-12v-54l2-9 16-8 8-2z" fill="#FDFDFD"/>
<path transform="translate(790,1083)" d="m0 0 4 1v101l-2 2-20 5h-4v-103l3-2z" fill="#FDD307"/>
<path transform="translate(370,963)" d="m0 0 5 4 7 8 3 3v2l4 2 4 5 7 5 1 2 1 63-5-2-16-12-10-8-2-2v-41z" fill="#FDFDFD"/>
<path transform="translate(936,1107)" d="m0 0h2l-1 18-22 13-16 8-19 9-10 5-25 10-28 10-5 1v-16l36-12 23-10 29-14 17-9 15-10z" fill="#FDFDFD"/>
<path transform="translate(739,1092)" d="m0 0h5l1 1v103l-7 2-7 1h-8l2-38 4-48 2-19 1-1z" fill="#FDD307"/>
<path transform="translate(571,1181)" d="m0 0 22 3 31 3 22 1h33l18-1 4-1v9l-1 7-13 1h-26l-32-1-26-2-30-4-3-2v-11z" fill="#FDFDFD"/>
<path transform="translate(307,1048)" d="m0 0 6 4 8 8 11 9 13 11 19 14 29 19 6 4 3 4v14l-5-2-16-9-18-12-17-12-16-13-22-18-1-2z" fill="#FDFDFD"/>
<path transform="translate(646,416)" d="m0 0 3 1 4 15 1 7v9l-1 2-11 1-3 2-14 2-13 4-3 1v-24l2-9 16-8 8-2z" fill="#0292ED"/>
<path transform="translate(440,1139)" d="m0 0 24 10 26 10 30 10 2 2 1 14-16-4-35-12-28-11-4-2-1-8z" fill="#FDFDFD"/>
<path transform="translate(418,1009)" d="m0 0 5 1 15 12-1 2-1 53h-3l-10-5-5-4z" fill="#FDFDFD"/>
<path transform="translate(677,466)" d="m0 0h2l2 10 1 8 1 20v109l-2 7h-4l-1-4-1-41v-107z" fill="#0292ED"/>
<path transform="translate(584,448)" d="m0 0 4 2v15l-1 5-5 2-2 6h2l1 2v10l-4 4-9 3-2-5-10-5-2-5 1-8 5-12 3-5 9-6z" fill="#0292ED"/>
<path transform="translate(790,1083)" d="m0 0 4 1v35l-22 5-4 1v-36l3-2z" fill="#FDFDFD"/>
<path transform="translate(539,1066)" d="m0 0 10 3 2 1 1 53-3 1-10-3-1-5z" fill="#F4F9FC"/>
<path transform="translate(704,447)" d="m0 0 3 3-2 14-6 21-6 18-4 11-2 3h-2v2h-2l-1-15v-12l5-9 8-16 6-16 1-3z" fill="#FDD307"/>
<path transform="translate(739,1092)" d="m0 0h5l1 1v37l-1 1-15 1-1-1 1-18 2-19 1-1z" fill="#FDFDFD"/>
<path transform="translate(915,452)" d="m0 0 2 1-9 7-13 8-16 8-1-1v-19l4-1h19z" fill="#0292ED"/>
<path transform="translate(793,1171)" d="m0 0h1v14l-2 2-20 5h-4v-15l6-2z" fill="#FDFDFD"/>
<path transform="translate(585,470)" d="m0 0h2v38l-3 1-14-2-1-7 2-4 9-4 2-2v-12h-2l1-6z" fill="#FDFDFD"/>
<path transform="translate(743,1182)" d="m0 0h2v14l-7 2-7 1h-8l1-15z" fill="#FDFDFD"/>
<path transform="translate(416,1128)" d="m0 0 6 1 9 6 4 1 1 2v12l-1 2-5-1-11-6-1-1z" fill="#FDFDFD"/>
<path transform="translate(543,224)" d="m0 0h13l1 2v11l-7 5-7 1-2-5v-12z" fill="#0292ED"/>
<path transform="translate(536,1174)" d="m0 0 10 2 5 2 2 2v12l-16-3-3-2 1-12z" fill="#FDFDFD"/>
<path transform="translate(483,245)" d="m0 0h4l3 9-1 4-7 6-5-1-7-8 1-3 5-4z" fill="#0292ED"/>
<path transform="translate(456,267)" d="m0 0h6l7 6-2 5-8 7-4-1-5-6v-5l4-5z" fill="#0292ED"/>
<path transform="translate(514,233)" d="m0 0 5 1-1 12-8 4-5-4v-2h-2l-1-5 3-3z" fill="#0292ED"/>
<path transform="translate(712,409)" d="m0 0 4 1 2 3v8l-3 3-5-1-2-2v-8z" fill="#FDD307"/>
<path transform="translate(568,516)" d="m0 0h2v2l5-1 4 1h6l2 5-2 2-13-1-5-2v-5z" fill="#FDFDFD"/>
<path transform="translate(718,461)" d="m0 0h6l1 1v8l-1 3-4 1-4-5v-6z" fill="#FDD307"/>
<path transform="translate(683,432)" d="m0 0 4 1 3 5-1 6-4 1-3-2-1-8z" fill="#FDD307"/>
<path transform="translate(565,532)" d="m0 0 8 1 12 2v2h-18l-2-2z" fill="#FDFDFD"/>
<path transform="translate(529,504)" d="m0 0 5 5 2 7h-3l-4-8z" fill="#0292ED"/>
</svg>
