<?xml version="1.0" encoding="utf-8"?><!-- Uploaded to: SVG Repo, www.svgrepo.com, Generator: SVG Repo Mixer Tools -->
<svg width="800px" height="800px" viewBox="0 0 24 24" fill="none" xmlns="http://www.w3.org/2000/svg">
<path fill-rule="evenodd" clip-rule="evenodd" d="M5 4C5 2.34315 6.34315 1 8 1H15.9999C17.6568 1 19 2.34314 19 4H20C21.6569 4 23 5.34315 23 7V7.64593C23 8.87265 22.2531 9.97577 21.1142 10.4314L18.031 11.6646C17.5965 12.464 16.958 13.2715 16.0234 13.8946C15.211 14.4361 14.2124 14.8132 13 14.9467V17H15C16.6569 17 18 18.3431 18 20V21C18 22.1046 17.1046 23 16 23H8C6.89543 23 6 22.1046 6 21V20C6 18.3431 7.34315 17 9 17H11V14.9467C9.78757 14.8133 8.7889 14.4361 7.97651 13.8945C7.04188 13.2715 6.40335 12.464 5.9689 11.6646L2.88583 10.4314C1.74685 9.97577 1 8.87265 1 7.64593V7C1 5.34315 2.34315 4 4 4H5ZM5 6H4C3.44772 6 3 6.44772 3 7V7.64593C3 8.05484 3.24895 8.42255 3.62861 8.57441L5.11907 9.1706C5.05194 8.78628 5.00063 8.39214 5 8.00104L5 6ZM19 8V6H20C20.5523 6 21 6.44772 21 7V7.64593C21 8.05484 20.751 8.42255 20.3714 8.57441L18.8809 9.17062C18.9469 8.78361 19 8.39286 19 8ZM8 3C7.44772 3 7 3.44772 7 4V7.99707L7 7.99832C7 7.99996 7 8.00078 7 7.99832C7.00508 8.25761 7.03756 8.51764 7.08014 8.77311C7.16297 9.27012 7.32677 9.91751 7.6444 10.5528C7.96008 11.1842 8.4179 11.7851 9.08591 12.2305C9.74766 12.6716 10.6749 13 12 13C13.325 13 14.2522 12.6716 14.914 12.2304C15.582 11.7851 16.0398 11.1842 16.3555 10.5528C16.6732 9.9175 16.837 9.27011 16.9198 8.7731C16.9624 8.51735 16.993 8.25848 17 7.99909V4C17 3.44772 16.5522 3 15.9999 3H8ZM9 19C8.44772 19 8 19.4477 8 20V21H16V20C16 19.4477 15.5523 19 15 19H9Z" fill="#0F0F0F"/>
</svg>